<svg width="21" height="21" viewBox="0 0 21 21" fill="none" xmlns="http://www.w3.org/2000/svg">
<g clip-path="url(#clip0_50_428)">
<path d="M20.4858 10.6133C20.4858 5.09043 16.0087 0.613281 10.4858 0.613281C4.96299 0.613281 0.48584 5.09043 0.48584 10.6133C0.48584 15.6045 4.14268 19.7416 8.92334 20.4918V13.5039H6.38428V10.6133H8.92334V8.41016C8.92334 5.90391 10.4163 4.51953 12.7005 4.51953C13.7942 4.51953 14.939 4.71484 14.939 4.71484V7.17578H13.678C12.4358 7.17578 12.0483 7.94668 12.0483 8.73828V10.6133H14.8218L14.3784 13.5039H12.0483V20.4918C16.829 19.7416 20.4858 15.6045 20.4858 10.6133Z" fill="white"/>
</g>
<defs>
<clipPath id="clip0_50_428">
<rect width="20" height="20" fill="white" transform="translate(0.48584 0.613281)"/>
</clipPath>
</defs>
</svg>
