<svg width="21" height="21" viewBox="0 0 21 21" fill="none" xmlns="http://www.w3.org/2000/svg">
<g clip-path="url(#clip0_50_430)">
<path d="M10.9238 2.41406C13.5957 2.41406 13.9121 2.42578 14.9629 2.47266C15.9395 2.51562 16.4668 2.67969 16.8184 2.81641C17.2832 2.99609 17.6191 3.21484 17.9668 3.5625C18.3184 3.91406 18.5332 4.24609 18.7129 4.71094C18.8496 5.0625 19.0137 5.59375 19.0566 6.56641C19.1035 7.62109 19.1152 7.9375 19.1152 10.6055C19.1152 13.2773 19.1035 13.5938 19.0566 14.6445C19.0137 15.6211 18.8496 16.1484 18.7129 16.5C18.5332 16.9648 18.3145 17.3008 17.9668 17.6484C17.6152 18 17.2832 18.2148 16.8184 18.3945C16.4668 18.5313 15.9355 18.6953 14.9629 18.7383C13.9082 18.7852 13.5918 18.7969 10.9238 18.7969C8.25195 18.7969 7.93555 18.7852 6.88477 18.7383C5.9082 18.6953 5.38086 18.5313 5.0293 18.3945C4.56445 18.2148 4.22852 17.9961 3.88086 17.6484C3.5293 17.2969 3.31445 16.9648 3.13477 16.5C2.99805 16.1484 2.83398 15.6172 2.79102 14.6445C2.74414 13.5898 2.73242 13.2734 2.73242 10.6055C2.73242 7.93359 2.74414 7.61719 2.79102 6.56641C2.83398 5.58984 2.99805 5.0625 3.13477 4.71094C3.31445 4.24609 3.5332 3.91016 3.88086 3.5625C4.23242 3.21094 4.56445 2.99609 5.0293 2.81641C5.38086 2.67969 5.91211 2.51562 6.88477 2.47266C7.93555 2.42578 8.25195 2.41406 10.9238 2.41406ZM10.9238 0.613281C8.20899 0.613281 7.86914 0.625 6.80274 0.671875C5.74023 0.71875 5.00977 0.890625 4.37695 1.13672C3.7168 1.39453 3.1582 1.73438 2.60352 2.29297C2.04492 2.84766 1.70508 3.40625 1.44727 4.0625C1.20117 4.69922 1.0293 5.42578 0.982422 6.48828C0.935547 7.55859 0.923828 7.89844 0.923828 10.6133C0.923828 13.3281 0.935547 13.668 0.982422 14.7344C1.0293 15.7969 1.20117 16.5273 1.44727 17.1602C1.70508 17.8203 2.04492 18.3789 2.60352 18.9336C3.1582 19.4883 3.7168 19.832 4.37305 20.0859C5.00977 20.332 5.73633 20.5039 6.79883 20.5508C7.86523 20.5977 8.20508 20.6094 10.9199 20.6094C13.6348 20.6094 13.9746 20.5977 15.041 20.5508C16.1035 20.5039 16.834 20.332 17.4668 20.0859C18.123 19.832 18.6816 19.4883 19.2363 18.9336C19.791 18.3789 20.1348 17.8203 20.3887 17.1641C20.6348 16.5273 20.8066 15.8008 20.8535 14.7383C20.9004 13.6719 20.9121 13.332 20.9121 10.6172C20.9121 7.90234 20.9004 7.5625 20.8535 6.49609C20.8066 5.43359 20.6348 4.70313 20.3887 4.07031C20.1426 3.40625 19.8027 2.84766 19.2441 2.29297C18.6895 1.73828 18.1309 1.39453 17.4746 1.14063C16.8379 0.894531 16.1113 0.722656 15.0488 0.675781C13.9785 0.625 13.6387 0.613281 10.9238 0.613281Z" fill="white"/>
<path d="M10.9238 5.47656C8.08789 5.47656 5.78711 7.77734 5.78711 10.6133C5.78711 13.4492 8.08789 15.75 10.9238 15.75C13.7598 15.75 16.0605 13.4492 16.0605 10.6133C16.0605 7.77734 13.7598 5.47656 10.9238 5.47656ZM10.9238 13.9453C9.08398 13.9453 7.5918 12.4531 7.5918 10.6133C7.5918 8.77344 9.08398 7.28125 10.9238 7.28125C12.7637 7.28125 14.2559 8.77344 14.2559 10.6133C14.2559 12.4531 12.7637 13.9453 10.9238 13.9453Z" fill="white"/>
<path d="M17.4629 5.27344C17.4629 5.9375 16.9238 6.47266 16.2637 6.47266C15.5996 6.47266 15.0645 5.9336 15.0645 5.27344C15.0645 4.60938 15.6035 4.07422 16.2637 4.07422C16.9238 4.07422 17.4629 4.61328 17.4629 5.27344Z" fill="white"/>
</g>
<defs>
<clipPath id="clip0_50_430">
<rect width="20" height="20" fill="white" transform="translate(0.923828 0.613281)"/>
</clipPath>
</defs>
</svg>
