<svg width="21" height="21" viewBox="0 0 21 21" fill="none" xmlns="http://www.w3.org/2000/svg">
<g clip-path="url(#clip0_50_429)">
<path d="M6.99663 18.7384C14.5419 18.7384 18.6701 12.4857 18.6701 7.06495C18.6701 6.88917 18.6662 6.70948 18.6583 6.5337C19.4614 5.95295 20.1544 5.23362 20.7048 4.40949C19.9569 4.74224 19.1629 4.95955 18.3498 5.05402C19.2059 4.54083 19.8469 3.73463 20.1541 2.78488C19.3486 3.2622 18.4678 3.59891 17.5494 3.78058C16.9305 3.12304 16.1123 2.68767 15.2212 2.54178C14.3302 2.39589 13.4158 2.54761 12.6196 2.97348C11.8234 3.39936 11.1897 4.07566 10.8164 4.89783C10.4431 5.72 10.351 6.64225 10.5544 7.52199C8.92358 7.44015 7.32811 7.01649 5.87149 6.27849C4.41486 5.54048 3.12958 4.5046 2.09897 3.238C1.57517 4.14111 1.41488 5.20977 1.65069 6.22681C1.8865 7.24385 2.50072 8.13294 3.36851 8.71339C2.71702 8.69271 2.07981 8.5173 1.50952 8.20167V8.25245C1.50894 9.20019 1.83658 10.1189 2.43676 10.8524C3.03694 11.5859 3.8726 12.0889 4.80171 12.2759C4.19821 12.441 3.56482 12.4651 2.95054 12.3462C3.21271 13.1613 3.72281 13.8741 4.40964 14.3853C5.09647 14.8965 5.92577 15.1806 6.78179 15.1978C5.32852 16.3393 3.53331 16.9585 1.6853 16.9556C1.35757 16.9551 1.03017 16.935 0.704834 16.8954C2.58221 18.0999 4.76611 18.7396 6.99663 18.7384Z" fill="white"/>
</g>
<defs>
<clipPath id="clip0_50_429">
<rect width="20" height="20" fill="white" transform="translate(0.704834 0.613281)"/>
</clipPath>
</defs>
</svg>
