<svg width="21" height="21" viewBox="0 0 21 21" fill="none" xmlns="http://www.w3.org/2000/svg">
<g clip-path="url(#clip0_50_431)">
<path d="M19.9438 6.61328C19.9438 6.61328 19.7485 5.23438 19.147 4.62891C18.3853 3.83203 17.5337 3.82812 17.1431 3.78125C14.3462 3.57812 10.147 3.57812 10.147 3.57812H10.1392C10.1392 3.57812 5.93994 3.57812 3.14307 3.78125C2.75244 3.82812 1.90088 3.83203 1.13916 4.62891C0.537598 5.23438 0.346191 6.61328 0.346191 6.61328C0.346191 6.61328 0.143066 8.23438 0.143066 9.85156V11.3672C0.143066 12.9844 0.342285 14.6055 0.342285 14.6055C0.342285 14.6055 0.537598 15.9844 1.13525 16.5898C1.89697 17.3867 2.89697 17.3594 3.34229 17.4453C4.94385 17.5977 10.1431 17.6445 10.1431 17.6445C10.1431 17.6445 14.3462 17.6367 17.1431 17.4375C17.5337 17.3906 18.3853 17.3867 19.147 16.5898C19.7485 15.9844 19.9438 14.6055 19.9438 14.6055C19.9438 14.6055 20.1431 12.9883 20.1431 11.3672V9.85156C20.1431 8.23438 19.9438 6.61328 19.9438 6.61328ZM8.07666 13.207V7.58594L13.479 10.4062L8.07666 13.207Z" fill="white"/>
</g>
<defs>
<clipPath id="clip0_50_431">
<rect width="20" height="20" fill="white" transform="translate(0.143066 0.613281)"/>
</clipPath>
</defs>
</svg>
