<svg width="120" height="25" viewBox="0 0 120 25" fill="none" xmlns="http://www.w3.org/2000/svg">
<path d="M10.8074 6.9407L11.0672 9.64022L4.09224 9.9945L4.5039 14.2707L9.84901 13.9992L10.1043 16.651L4.75917 16.9225L5.43761 23.9699L2.08193 24.1403L0.476692 7.46543L10.8074 6.9407ZM13.2876 16.8734C13.1588 15.5356 13.3082 14.3357 13.7359 13.2737C14.1795 12.2109 14.8299 11.3776 15.6871 10.7739C16.5603 10.1694 17.5641 9.83836 18.6986 9.78073C19.6894 9.73041 20.5714 9.88566 21.3448 10.2465C22.1342 10.6065 22.7817 11.0777 23.2874 11.6602L23.1057 9.77294L26.4853 9.60127L27.7594 22.8361L24.3797 23.0078L24.1935 21.0727C23.8218 21.7157 23.2724 22.2638 22.5453 22.7168C21.8326 23.1531 20.9809 23.3965 19.9901 23.4468C18.8716 23.5036 17.8213 23.2689 16.8393 22.7426C15.8733 22.2155 15.0688 21.4482 14.4258 20.4405C13.7973 19.4162 13.4179 18.2271 13.2876 16.8734ZM23.7427 16.3903C23.6645 15.5781 23.438 14.8934 23.0633 14.3363C22.6869 13.7633 22.2126 13.3392 21.6401 13.0642C21.0662 12.7733 20.4676 12.6437 19.8444 12.6753C19.2212 12.707 18.6605 12.8875 18.1623 13.2169C17.6641 13.5463 17.2756 14.0141 16.9968 14.6204C16.7324 15.21 16.6385 15.903 16.7152 16.6993C16.7918 17.4956 17.0191 18.1882 17.3969 18.7772C17.7892 19.3495 18.2644 19.7814 18.8223 20.0732C19.3963 20.3641 19.9869 20.4942 20.5941 20.4633C21.2173 20.4317 21.786 20.2507 22.3002 19.9205C22.8128 19.5744 23.2013 19.1066 23.4657 18.517C23.7286 17.9115 23.8209 17.2026 23.7427 16.3903ZM29.5369 16.096C29.405 14.7264 29.5697 13.5177 30.0308 12.47C30.4904 11.4064 31.1888 10.5707 32.1258 9.96294C33.0614 9.33927 34.1683 8.99496 35.4467 8.93003C37.0925 8.84643 38.4907 9.19153 39.641 9.96532C40.8058 10.7224 41.6432 11.8321 42.1534 13.2946L38.534 13.4785C38.2871 12.9149 37.9166 12.4856 37.4225 12.1906C36.9429 11.8788 36.3675 11.74 35.6964 11.7741C34.7376 11.8228 34.0123 12.2117 33.5205 12.9409C33.0271 13.6542 32.8418 14.6478 32.9645 15.9219C33.0856 17.1801 33.4595 18.1454 34.0862 18.8177C34.7114 19.4742 35.5034 19.778 36.4622 19.7293C37.8204 19.6603 38.649 19.0101 38.948 17.7786L42.5673 17.5947C42.3378 19.0468 41.7203 20.2225 40.715 21.1217C39.7097 22.021 38.392 22.5121 36.7621 22.5949C35.4838 22.6598 34.3224 22.4387 33.278 21.9316C32.2321 21.4086 31.3805 20.6516 30.7231 19.6607C30.0641 18.6539 29.6687 17.4657 29.5369 16.096ZM57.1352 14.4061C57.1812 14.8839 57.1906 15.3156 57.1635 15.701L47.456 16.1941C47.6279 17.1456 48.0355 17.8771 48.6789 18.3886C49.3222 18.9001 50.0754 19.1339 50.9382 19.0901C52.1846 19.0268 53.0201 18.4482 53.4447 17.3543L57.0641 17.1705C56.8032 18.4641 56.1694 19.5525 55.1625 20.4359C54.1541 21.3033 52.8589 21.7772 51.2769 21.8576C49.9986 21.9225 48.8212 21.7023 47.7449 21.1968C46.683 20.6746 45.8146 19.9105 45.1397 18.9045C44.4807 17.8977 44.0861 16.7174 43.9558 15.3636C43.8239 13.994 43.9878 12.7773 44.4474 11.7137C44.9071 10.6501 45.6134 9.814 46.5664 9.20544C47.5195 8.59688 48.6511 8.25933 49.9615 8.19277C51.2238 8.12865 52.3764 8.34218 53.4193 8.83335C54.4781 9.32371 55.3275 10.0568 55.9674 11.0325C56.6217 11.9916 57.011 13.1161 57.1352 14.4061ZM53.5676 13.6271C53.4689 12.7679 53.0914 12.0989 52.4351 11.6201C51.7773 11.1253 51.0089 10.9003 50.1301 10.9449C49.2991 10.9871 48.6206 11.2777 48.0944 11.8165C47.5826 12.3387 47.3058 13.0489 47.2638 13.9473L53.5676 13.6271ZM62.517 9.7156C62.8871 9.05663 63.4285 8.50899 64.1412 8.07268C64.8699 7.63556 65.7216 7.39225 66.6964 7.34274C67.8309 7.28511 68.8804 7.51188 69.8449 8.02304C70.8254 8.53338 71.6291 9.29277 72.2561 10.3012C72.8975 11.2929 73.2834 12.4656 73.4137 13.8194C73.544 15.1731 73.3881 16.3893 72.946 17.4681C72.5184 18.5301 71.8687 19.3713 70.9971 19.9917C70.1415 20.6113 69.1464 20.9499 68.0119 21.0076C67.0211 21.0579 66.1319 20.911 65.344 20.5669C64.5706 20.2061 63.9303 19.7265 63.4231 19.1281L63.6048 21.0154L60.2491 21.1858L58.5473 3.50753L61.903 3.33709L62.517 9.7156ZM69.9861 13.9935C69.9095 13.1971 69.6758 12.5208 69.285 11.9645C68.9087 11.3915 68.4343 10.9674 67.8619 10.6924C67.3054 10.4166 66.7156 10.2945 66.0924 10.3262C65.4852 10.357 64.9253 10.5455 64.4126 10.8917C63.9144 11.221 63.5259 11.6889 63.2471 12.2952C62.9842 12.9007 62.8911 13.6016 62.9678 14.398C63.0444 15.1943 63.2709 15.879 63.6472 16.452C64.0395 17.0242 64.5147 17.4562 65.0727 17.748C65.6451 18.023 66.2349 18.145 66.8421 18.1142C67.4653 18.0825 68.0252 17.8941 68.5219 17.5487C69.0345 17.2026 69.4223 16.7268 69.6851 16.1213C69.964 15.515 70.0643 14.8057 69.9861 13.9935ZM82.4109 20.2762C81.1326 20.3411 79.9552 20.1208 78.8789 19.6154C77.801 19.094 76.9166 18.3307 76.2257 17.3255C75.5508 16.3195 75.1482 15.1396 75.0179 13.7859C74.8875 12.4321 75.0682 11.2226 75.5598 10.1574C76.0673 9.09134 76.8136 8.25322 77.7986 7.64304C78.7821 7.01694 79.913 6.67142 81.1913 6.60648C82.4697 6.54155 83.6558 6.76938 84.7496 7.28997C85.842 7.79464 86.7336 8.54956 87.4245 9.55475C88.1313 10.5591 88.5499 11.7382 88.6803 13.0919C88.8106 14.4457 88.614 15.656 88.0904 16.7228C87.5829 17.7889 86.8294 18.6354 85.8299 19.2623C84.8449 19.8725 83.7052 20.2104 82.4109 20.2762ZM82.1303 17.3617C82.7376 17.3308 83.291 17.1587 83.7908 16.8452C84.3049 16.515 84.6934 16.0472 84.9563 15.4416C85.2192 14.8361 85.31 14.1113 85.2287 13.2672C85.1076 12.0091 84.6793 11.0625 83.9437 10.4277C83.2226 9.77617 82.3827 9.47475 81.424 9.52345C80.4652 9.57215 79.6912 9.95555 79.102 10.6737C78.5272 11.375 78.3004 12.3548 78.4215 13.613C78.5426 14.8712 78.9477 15.8269 79.6368 16.48C80.3404 17.1165 81.1716 17.4104 82.1303 17.3617ZM97.6959 19.4998C96.4175 19.5647 95.2402 19.3445 94.1639 18.839C93.086 18.3176 92.2016 17.5543 91.5107 16.5491C90.8358 15.5431 90.4332 14.3632 90.3028 13.0095C90.1725 11.6558 90.3532 10.4463 90.8447 9.38102C91.3523 8.31496 92.0986 7.47684 93.0836 6.86666C94.067 6.24055 95.198 5.89503 96.4763 5.8301C97.7547 5.76517 98.9408 5.993 100.035 6.51359C101.127 7.01826 102.019 7.77318 102.709 8.77836C103.416 9.78273 103.835 10.9618 103.965 12.3155C104.096 13.6693 103.899 14.8796 103.375 15.9464C102.868 17.0125 102.114 17.859 101.115 18.4859C100.13 19.0961 98.9902 19.4341 97.6959 19.4998ZM97.4153 16.5853C98.0225 16.5544 98.576 16.3823 99.0757 16.0688C99.5899 15.7386 99.9784 15.2708 100.241 14.6653C100.504 14.0598 100.595 13.3349 100.514 12.4909C100.393 11.2327 99.9642 10.2862 99.2287 9.65135C98.5076 8.99979 97.6677 8.69836 96.7089 8.74706C95.7502 8.79576 94.9762 9.17917 94.387 9.89728C93.8122 10.5987 93.5853 11.5784 93.7065 12.8366C93.8276 14.0948 94.2327 15.0505 94.9218 15.7037C95.6254 16.3401 96.4566 16.634 97.4153 16.5853ZM114.926 18.4086L109.877 12.9995L110.419 18.6375L107.064 18.8079L105.362 1.12964L108.718 0.959189L109.686 11.0167L113.604 5.1762L117.966 4.95461L112.757 11.893L119.288 18.187L114.926 18.4086Z" fill="#F6F54D"/>
</svg>
