<svg width="88" height="29" viewBox="0 0 88 29" fill="none" xmlns="http://www.w3.org/2000/svg">
<path d="M13.3995 9.85807C12.9486 9.17679 12.3699 8.67004 11.6635 8.33783C10.9571 8.00561 10.1565 7.86223 9.26161 7.90768C8.27089 7.958 7.41348 8.22561 6.6894 8.71051C5.96532 9.19541 5.42742 9.8629 5.0757 10.713C4.72398 11.5631 4.60025 12.5296 4.70451 13.6126C4.81183 14.7275 5.12108 15.688 5.63224 16.4943C6.15939 17.2997 6.83593 17.9055 7.66185 18.3117C8.48777 18.7178 9.42006 18.8945 10.4587 18.8418C11.7371 18.7769 12.7515 18.3892 13.5021 17.6789C14.2511 16.9527 14.6952 15.9779 14.8343 14.7545L9.08175 15.0467L8.83568 12.4905L17.896 12.0303L18.1766 14.9448C18.0648 16.1188 17.6889 17.2182 17.0489 18.243C16.4089 19.2678 15.5348 20.1124 14.4265 20.7768C13.3328 21.4245 12.0668 21.7849 10.6286 21.858C9.01472 21.9399 7.51811 21.6559 6.13881 21.0057C4.77395 20.3389 3.65391 19.3795 2.77869 18.1276C1.91945 16.8749 1.41087 15.4283 1.25296 13.7879C1.09504 12.1475 1.32151 10.6636 1.93238 9.33624C2.55769 7.99213 3.48301 6.92886 4.70835 6.14643C5.94814 5.34726 7.367 4.90709 8.96494 4.82592C10.8505 4.73015 12.5329 5.10882 14.012 5.96193C15.4896 6.79912 16.5718 8.0325 17.2585 9.66206L13.3995 9.85807ZM27.1881 21.0889C25.9097 21.1538 24.7324 20.9335 23.656 20.428C22.5782 19.9066 21.6938 19.1434 21.0029 18.1382C20.328 17.1322 19.9253 15.9523 19.795 14.5986C19.6647 13.2448 19.8453 12.0353 20.3369 10.9701C20.8445 9.90403 21.5908 9.06591 22.5758 8.45573C23.5592 7.82962 24.6901 7.4841 25.9685 7.41917C27.2468 7.35423 28.4329 7.58206 29.5268 8.10266C30.6191 8.60732 31.5107 9.36225 32.2016 10.3674C32.9085 11.3718 33.3271 12.5509 33.4574 13.9046C33.5877 15.2583 33.3911 16.4686 32.8676 17.5355C32.36 18.6016 31.6065 19.4481 30.6071 20.075C29.6221 20.6852 28.4824 21.0231 27.1881 21.0889ZM26.9075 18.1743C27.5147 18.1435 28.0682 17.9713 28.5679 17.6579C29.0821 17.3277 29.4706 16.8598 29.7335 16.2543C29.9963 15.6488 30.0871 14.924 30.0059 14.0799C29.8847 12.8217 29.4564 11.8752 28.7209 11.2404C27.9998 10.5889 27.1599 10.2874 26.2011 10.3361C25.2424 10.3848 24.4684 10.7682 23.8791 11.4863C23.3043 12.1877 23.0775 13.1675 23.1986 14.4257C23.3198 15.6839 23.7249 16.6395 24.414 17.2927C25.1176 17.9292 25.9487 18.223 26.9075 18.1743ZM42.4731 20.3125C41.1947 20.3774 40.0174 20.1571 38.941 19.6517C37.8631 19.1303 36.9788 18.367 36.2879 17.3618C35.6129 16.3558 35.2103 15.1759 35.08 13.8222C34.9497 12.4684 35.1303 11.2589 35.6219 10.1937C36.1295 9.12764 36.8757 8.28952 37.8607 7.67934C38.8442 7.05324 39.9751 6.70772 41.2535 6.64278C42.5318 6.57785 43.7179 6.80568 44.8118 7.32627C45.9041 7.83094 46.7957 8.58586 47.4866 9.59105C48.1935 10.5954 48.6121 11.7745 48.7424 13.1282C48.8727 14.482 48.6761 15.6923 48.1526 16.7591C47.645 17.8252 46.8915 18.6717 45.8921 19.2986C44.9071 19.9088 43.7674 20.2467 42.4731 20.3125ZM42.1925 17.398C42.7997 17.3671 43.3532 17.195 43.8529 16.8815C44.3671 16.5513 44.7556 16.0835 45.0184 15.4779C45.2813 14.8724 45.3721 14.1476 45.2908 13.3035C45.1697 12.0453 44.7414 11.0988 44.0059 10.464C43.2848 9.81247 42.4449 9.51105 41.4861 9.55975C40.5273 9.60844 39.7533 9.99185 39.1641 10.71C38.5893 11.4113 38.3625 12.3911 38.4836 13.6493C38.6047 14.9075 39.0099 15.8632 39.699 16.5163C40.4026 17.1528 41.2337 17.4467 42.1925 17.398ZM55.7475 5.90658C56.7382 5.85625 57.6282 6.0111 58.4176 6.37111C59.2054 6.7152 59.845 7.18685 60.3362 7.78606L60.1545 5.89878L63.5342 5.72712L64.8174 19.0575C64.9355 20.2838 64.7928 21.3874 64.3895 22.3681C63.9876 23.3648 63.3182 24.167 62.3811 24.7747C61.4456 25.3984 60.2747 25.746 58.8685 25.8174C56.983 25.9132 55.3908 25.5539 54.092 24.7396C52.8093 23.9246 52.0152 22.7646 51.7097 21.2597L55.0414 21.0905C55.2754 21.6867 55.697 22.1455 56.3059 22.4666C56.9324 22.8029 57.6612 22.9499 58.4921 22.9077C59.4668 22.8582 60.2294 22.5234 60.7799 21.9033C61.332 21.2991 61.5512 20.4077 61.4378 19.2292L61.24 17.1747C60.8684 17.8177 60.319 18.3657 59.5918 18.8188C58.8806 19.271 58.0377 19.5219 57.0629 19.5714C55.9444 19.6282 54.8941 19.3935 53.9121 18.8672C52.9301 18.3409 52.1176 17.574 51.4747 16.5664C50.8462 15.542 50.4667 14.353 50.3364 12.9992C50.2076 11.6614 50.3571 10.4615 50.7847 9.39951C51.2284 8.3367 51.8788 7.50345 52.736 6.89977C53.6091 6.29527 54.6129 5.96421 55.7475 5.90658ZM60.7916 12.5162C60.7134 11.7039 60.4869 11.0193 60.1121 10.4622C59.7358 9.88911 59.2614 9.46508 58.689 9.19008C58.115 8.89915 57.5164 8.76951 56.8932 8.80116C56.27 8.83282 55.7093 9.01334 55.2112 9.34272C54.713 9.67211 54.3244 10.14 54.0456 10.7463C53.7812 11.3359 53.6873 12.0288 53.764 12.8251C53.8407 13.6215 54.0679 14.3141 54.4458 14.9031C54.8381 15.4753 55.3132 15.9073 55.8712 16.199C56.4452 16.49 57.0357 16.62 57.643 16.5892C58.2662 16.5575 58.8348 16.3766 59.349 16.0464C59.8616 15.7003 60.2502 15.2324 60.5146 14.6428C60.7774 14.0373 60.8697 13.3284 60.7916 12.5162ZM69.7395 0.946742L71.4413 18.625L68.0856 18.7955L66.3838 1.11719L69.7395 0.946742ZM86.4362 10.9255C86.4822 11.4033 86.4916 11.835 86.4645 12.2204L76.757 12.7135C76.9289 13.665 77.3365 14.3965 77.9799 14.908C78.6232 15.4195 79.3764 15.6533 80.2393 15.6095C81.4857 15.5461 82.3211 14.9676 82.7457 13.8737L86.3651 13.6899C86.1042 14.9835 85.4704 16.0719 84.4635 16.9553C83.4551 17.8227 82.1599 18.2966 80.5779 18.377C79.2996 18.4419 78.1222 18.2216 77.0459 17.7162C75.984 17.194 75.1156 16.4299 74.4407 15.4239C73.7817 14.4171 73.3871 13.2368 73.2568 11.883C73.1249 10.5134 73.2888 9.29672 73.7484 8.2331C74.2081 7.16948 74.9144 6.33339 75.8674 5.72483C76.8205 5.11627 77.9522 4.77872 79.2625 4.71216C80.5248 4.64804 81.6775 4.86157 82.7203 5.35274C83.7791 5.8431 84.6285 6.57617 85.2684 7.55193C85.9227 8.51096 86.312 9.63549 86.4362 10.9255ZM82.8687 10.1465C82.7699 9.28727 82.3924 8.61826 81.7361 8.13946C81.0783 7.64473 80.3099 7.41969 79.4311 7.46433C78.6001 7.50654 77.9216 7.79707 77.3954 8.33593C76.8836 8.85806 76.6068 9.56831 76.5648 10.4667L82.8687 10.1465Z" fill="#F6F54D"/>
</svg>
