<svg width="129" height="30" viewBox="0 0 129 30" fill="none" xmlns="http://www.w3.org/2000/svg">
<path d="M4.05612 6.21027L5.66136 22.8852L2.30569 23.0556L0.700447 6.38071L4.05612 6.21027ZM15.0428 8.91708C16.6248 8.83672 17.9514 9.27347 19.0228 10.2273C20.0926 11.1652 20.7133 12.5261 20.885 14.3098L21.6325 22.0739L18.2768 22.2444L17.5731 14.9342C17.4719 13.883 17.1308 13.0922 16.5498 12.5615C15.9673 12.015 15.2206 11.7648 14.3098 11.8111C13.383 11.8581 12.6755 12.1822 12.1874 12.7831C11.7138 13.3673 11.5275 14.185 11.6287 15.2361L12.3324 22.5463L8.97677 22.7168L7.7027 9.48196L11.0584 9.31151L11.2171 10.9599C11.6093 10.3638 12.1336 9.88906 12.7901 9.53564C13.461 9.16547 14.2119 8.95928 15.0428 8.91708ZM29.9257 21.8688C28.8391 21.924 27.8459 21.7823 26.9463 21.4439C26.045 21.0896 25.3066 20.591 24.7308 19.948C24.1711 19.3043 23.8281 18.5775 23.702 17.7677L27.0816 17.596C27.1946 18.1024 27.4829 18.5119 27.9466 18.8245C28.4262 19.1362 28.9936 19.2754 29.6487 19.2421C30.2879 19.2097 30.771 19.0571 31.098 18.7844C31.441 18.5109 31.5934 18.1751 31.555 17.7769C31.5136 17.3469 31.2593 17.0398 30.7919 16.8554C30.339 16.6544 29.6209 16.4508 28.6376 16.2447C27.6239 16.0561 26.7852 15.8506 26.1215 15.6283C25.4737 15.4051 24.8929 15.0425 24.3789 14.5405C23.8808 14.0376 23.5889 13.3403 23.503 12.4484C23.4325 11.7158 23.5759 11.0363 23.9331 10.41C24.3062 9.78291 24.8675 9.27427 25.6167 8.88412C26.382 8.49316 27.2999 8.27049 28.3705 8.21611C29.9525 8.13575 31.2532 8.46979 32.2726 9.21822C33.2905 9.95073 33.9118 10.9835 34.1365 12.3164L30.9246 12.4795C30.8261 11.9564 30.5625 11.5537 30.1339 11.2714C29.7197 10.9723 29.1851 10.8394 28.5299 10.8727C27.9227 10.9036 27.462 11.039 27.1479 11.279C26.8498 11.5182 26.7199 11.8369 26.7582 12.235C26.8012 12.681 27.0579 13.012 27.5283 13.2282C27.9972 13.4284 28.7145 13.6241 29.6803 13.8151C30.662 14.0053 31.4768 14.212 32.1245 14.4351C32.7722 14.6583 33.3459 15.0293 33.8454 15.548C34.3594 16.0501 34.6666 16.7387 34.7669 17.6138C34.8405 18.3783 34.6907 19.074 34.3175 19.7012C33.9603 20.3275 33.3991 20.8361 32.6338 21.2271C31.883 21.6013 30.9803 21.8152 29.9257 21.8688ZM40.7822 10.5625L41.3985 16.9649C41.4415 17.4108 41.5767 17.732 41.8044 17.9285C42.0465 18.1083 42.4232 18.1852 42.9346 18.1592L44.4926 18.08L44.764 20.899L42.6547 21.0061C39.8263 21.1498 38.2803 19.852 38.0166 17.1126L37.4025 10.7341L35.8206 10.8145L35.5561 8.06718L37.1381 7.98683L36.823 4.71395L40.2026 4.54229L40.5177 7.81516L43.4899 7.66419L43.7544 10.4115L40.7822 10.5625ZM45.673 14.1551C45.5442 12.8172 45.6937 11.6173 46.1213 10.5553C46.565 9.49252 47.2154 8.65927 48.0725 8.05559C48.9457 7.45109 49.9495 7.12002 51.0841 7.0624C52.0748 7.01207 52.9568 7.16732 53.7302 7.52815C54.5196 7.88816 55.1671 8.3594 55.6728 8.94188L55.4911 7.0546L58.8707 6.88294L60.1448 20.1178L56.7652 20.2894L56.5789 18.3544C56.2072 18.9974 55.6578 19.5455 54.9307 19.9985C54.218 20.4348 53.3663 20.6781 52.3756 20.7284C51.257 20.7853 50.2067 20.5505 49.2247 20.0243C48.2587 19.4972 47.4542 18.7298 46.8113 17.7222C46.1827 16.6978 45.8033 15.5088 45.673 14.1551ZM56.1281 13.672C56.0499 12.8598 55.8235 12.1751 55.4487 11.618C55.0724 11.0449 54.598 10.6209 54.0256 10.3459C53.4516 10.055 52.853 9.92533 52.2298 9.95698C51.6066 9.98864 51.0459 10.1692 50.5477 10.4985C50.0495 10.8279 49.661 11.2958 49.3822 11.9021C49.1178 12.4917 49.0239 13.1846 49.1006 13.981C49.1772 14.7773 49.4045 15.4699 49.7823 16.0589C50.1746 16.6311 50.6498 17.0631 51.2078 17.3548C51.7817 17.6458 52.3723 17.7758 52.9795 17.745C53.6027 17.7133 54.1714 17.5324 54.6856 17.2022C55.1982 16.8561 55.5867 16.3882 55.8511 15.7986C56.114 15.1931 56.2063 14.4843 56.1281 13.672ZM67.3287 6.23727C68.3195 6.18694 69.2095 6.34179 69.9989 6.7018C70.7867 7.04589 71.4262 7.51754 71.9175 8.11675L71.7358 6.22947L75.1154 6.05781L76.3987 19.3882C76.5168 20.6145 76.3741 21.7181 75.9707 22.6988C75.5689 23.6955 74.8994 24.4977 73.9624 25.1054C73.0268 25.7291 71.856 26.0766 70.4498 26.1481C68.5642 26.2438 66.9721 25.8846 65.6733 25.0703C64.3905 24.2553 63.5964 23.0953 63.291 21.5904L66.6227 21.4212C66.8567 22.0174 67.2782 22.4761 67.8872 22.7973C68.5137 23.1336 69.2424 23.2806 70.0734 23.2384C71.0481 23.1889 71.8107 22.8541 72.3612 22.234C72.9132 21.6298 73.1325 20.7384 73.0191 19.5598L72.8213 17.5053C72.4496 18.1484 71.9002 18.6964 71.1731 19.1495C70.4619 19.6017 69.6189 19.8526 68.6442 19.9021C67.5256 19.9589 66.4754 19.7242 65.4934 19.1979C64.5114 18.6716 63.6989 17.9047 63.0559 16.8971C62.4274 15.8727 62.048 14.6837 61.9177 13.3299C61.7889 11.9921 61.9383 10.7922 62.366 9.7302C62.8096 8.66739 63.46 7.83414 64.3172 7.23046C65.1904 6.62596 66.1942 6.29489 67.3287 6.23727ZM72.3728 12.8469C72.2946 12.0346 72.0681 11.35 71.6934 10.7928C71.317 10.2198 70.8427 9.79577 70.2702 9.52077C69.6963 9.22984 69.0977 9.1002 68.4745 9.13185C67.8513 9.16351 67.2906 9.34403 66.7924 9.67341C66.2942 10.0028 65.9057 10.4707 65.6269 11.077C65.3625 11.6666 65.2686 12.3595 65.3453 13.1558C65.4219 13.9521 65.6492 14.6448 66.027 15.2338C66.4193 15.806 66.8945 16.238 67.4525 16.5297C68.0264 16.8206 68.617 16.9507 69.2242 16.9199C69.8474 16.8882 70.4161 16.7073 70.9303 16.3771C71.4429 16.0309 71.8314 15.5631 72.0958 14.9735C72.3587 14.368 72.451 13.6591 72.3728 12.8469ZM81.9463 7.77539C82.3103 7.05272 82.8166 6.47485 83.4654 6.04179C84.1302 5.60792 84.91 5.36825 85.8048 5.3228L86.1429 8.83457L85.2561 8.87961C84.2014 8.93318 83.4262 9.22062 82.9304 9.74194C82.4506 10.2624 82.2698 11.1359 82.3878 12.3622L83.0226 18.9557L79.6669 19.1262L78.3928 5.89134L81.7485 5.72089L81.9463 7.77539ZM87.853 12.0126C87.7242 10.6748 87.8737 9.47485 88.3013 8.41285C88.745 7.35004 89.3954 6.51679 90.2525 5.9131C91.1257 5.3086 92.1295 4.97754 93.2641 4.91991C94.2548 4.86959 95.1368 5.02484 95.9102 5.38566C96.6996 5.74567 97.3471 6.21692 97.8528 6.79939L97.6711 4.91212L101.051 4.74045L102.325 17.9753L98.9452 18.1469L98.7589 16.2119C98.3872 16.8549 97.8378 17.403 97.1107 17.856C96.398 18.2923 95.5463 18.5356 94.5556 18.586C93.437 18.6428 92.3867 18.408 91.4047 17.8818C90.4387 17.3547 89.6342 16.5873 88.9913 15.5797C88.3627 14.5554 87.9833 13.3663 87.853 12.0126ZM98.3081 11.5295C98.2299 10.7173 98.0035 10.0326 97.6287 9.47549C97.2524 8.90244 96.778 8.47842 96.2056 8.20341C95.6316 7.91248 95.033 7.78284 94.4098 7.8145C93.7866 7.84615 93.2259 8.02667 92.7277 8.35606C92.2295 8.68545 91.841 9.1533 91.5622 9.75962C91.2978 10.3492 91.2039 11.0422 91.2806 11.8385C91.3572 12.6348 91.5845 13.3274 91.9623 13.9164C92.3546 14.4886 92.8298 14.9206 93.3878 15.2124C93.9617 15.5033 94.5523 15.6333 95.1595 15.6025C95.7827 15.5708 96.3514 15.3899 96.8656 15.0597C97.3782 14.7136 97.7667 14.2457 98.0311 13.6562C98.294 13.0506 98.3863 12.3418 98.3081 11.5295ZM120.8 3.54524C122.43 3.46245 123.789 3.89757 124.876 4.85061C125.978 5.78691 126.615 7.14694 126.787 8.93069L127.534 16.6948L124.178 16.8652L123.475 9.55504C123.375 8.51983 123.035 7.74487 122.456 7.23015C121.875 6.69952 121.129 6.45733 120.218 6.50359C119.307 6.54986 118.607 6.8655 118.117 7.45052C117.642 8.0188 117.455 8.82055 117.554 9.85576L118.258 17.166L114.902 17.3364L114.198 10.0262C114.099 8.991 113.759 8.21603 113.18 7.70132C112.599 7.17068 111.853 6.92849 110.942 6.97476C110.015 7.02184 109.307 7.33788 108.817 7.9229C108.342 8.49118 108.154 9.29293 108.254 10.3281L108.958 17.6384L105.602 17.8088L104.328 4.57398L107.684 4.40353L107.838 6.00414C108.216 5.4248 108.725 4.95882 109.365 4.6062C110.022 4.25277 110.757 4.05536 111.572 4.01397C112.611 3.96121 113.559 4.1371 114.417 4.54165C115.274 4.93027 115.965 5.51933 116.49 6.30885C116.848 5.52247 117.412 4.87765 118.183 4.37439C118.969 3.87032 119.842 3.59394 120.8 3.54524Z" fill="#F6F54D"/>
</svg>
