<svg width="172" height="31" viewBox="0 0 172 31" fill="none" xmlns="http://www.w3.org/2000/svg">
<g clip-path="url(#clip0_21_96)">
<path fill-rule="evenodd" clip-rule="evenodd" d="M12 27.5C5.37225 27.5 0 22.1278 0 15.5C0 8.87225 5.37225 3.5 12 3.5C18.6278 3.5 24 8.87225 24 15.5C24 22.1278 18.6278 27.5 12 27.5ZM8.6025 9.24575C7.84494 9.24575 7.11841 9.54669 6.58274 10.0824C6.04706 10.618 5.74613 11.3446 5.74613 12.1021C5.74613 12.8597 6.04706 13.5862 6.58274 14.1219C7.11841 14.6576 7.84494 14.9585 8.6025 14.9585C9.36006 14.9585 10.0866 14.6576 10.6223 14.1219C11.1579 13.5862 11.4589 12.8597 11.4589 12.1021C11.4589 11.3446 11.1579 10.618 10.6223 10.0824C10.0866 9.54669 9.36006 9.24575 8.6025 9.24575ZM11.4578 18.8983C11.4578 17.8534 11.8728 16.8513 12.6117 16.1124C13.3505 15.3736 14.3526 14.9585 15.3975 14.9585C15.9624 14.9585 16.5145 14.791 16.9842 14.4772C17.4539 14.1634 17.8199 13.7173 18.0361 13.1954C18.2523 12.6736 18.3088 12.0993 18.1986 11.5453C18.0884 10.9913 17.8164 10.4824 17.417 10.083C17.0176 9.68358 16.5087 9.41158 15.9547 9.30138C15.4007 9.19118 14.8264 9.24774 14.3046 9.4639C13.7827 9.68006 13.3366 10.0461 13.0228 10.5158C12.709 10.9855 12.5415 11.5376 12.5415 12.1025C12.5415 14.2775 10.7775 16.0422 8.60175 16.0422C8.03689 16.0422 7.48471 16.2098 7.01504 16.5236C6.54537 16.8374 6.17931 17.2834 5.96315 17.8053C5.74699 18.3272 5.69043 18.9014 5.80063 19.4554C5.91083 20.0094 6.18283 20.5183 6.58225 20.9177C6.98167 21.3172 7.49056 21.5892 8.04457 21.6994C8.59858 21.8096 9.17283 21.753 9.69469 21.5368C10.2166 21.3207 10.6626 20.9546 10.9764 20.485C11.2902 20.0153 11.4578 19.4631 11.4578 18.8983ZM15.3975 21.7542C15.7726 21.7543 16.1439 21.6805 16.4905 21.537C16.837 21.3935 17.1519 21.1832 17.4171 20.918C17.6823 20.6528 17.8928 20.338 18.0363 19.9915C18.1799 19.6451 18.2538 19.2737 18.2539 18.8986C18.2539 18.5236 18.1801 18.1522 18.0366 17.8057C17.8931 17.4591 17.6828 17.1443 17.4176 16.879C17.1525 16.6138 16.8377 16.4034 16.4912 16.2598C16.1447 16.1162 15.7733 16.0423 15.3983 16.0422C14.6408 16.0422 13.9144 16.3431 13.3788 16.8788C12.8431 17.4144 12.5422 18.1408 12.5422 18.8983C12.5422 19.6557 12.8431 20.3821 13.3788 20.9177C13.9144 21.4534 14.64 21.7542 15.3975 21.7542ZM15.3975 19.7593C15.1691 19.7593 14.9501 19.6685 14.7887 19.5071C14.6272 19.3456 14.5365 19.1266 14.5365 18.8983C14.5365 18.6699 14.6272 18.4509 14.7887 18.2894C14.9501 18.128 15.1691 18.0372 15.3975 18.0372C15.6259 18.0372 15.8449 18.128 16.0063 18.2894C16.1678 18.4509 16.2585 18.6699 16.2585 18.8983C16.2585 19.1266 16.1678 19.3456 16.0063 19.5071C15.8449 19.6685 15.6259 19.7593 15.3975 19.7593ZM8.6025 19.7593C8.37415 19.7593 8.15515 19.6685 7.99368 19.5071C7.83221 19.3456 7.7415 19.1266 7.7415 18.8983C7.7415 18.6699 7.83221 18.4509 7.99368 18.2894C8.15515 18.128 8.37415 18.0372 8.6025 18.0372C8.83085 18.0372 9.04985 18.128 9.21132 18.2894C9.37279 18.4509 9.4635 18.6699 9.4635 18.8983C9.4635 19.1266 9.37279 19.3456 9.21132 19.5071C9.04985 19.6685 8.83085 19.7593 8.6025 19.7593ZM15.3975 12.9627C15.1691 12.9627 14.9501 12.872 14.7887 12.7106C14.6272 12.5491 14.5365 12.3301 14.5365 12.1017C14.5365 11.8734 14.6272 11.6544 14.7887 11.4929C14.9501 11.3315 15.1691 11.2408 15.3975 11.2408C15.6259 11.2408 15.8449 11.3315 16.0063 11.4929C16.1678 11.6544 16.2585 11.8734 16.2585 12.1017C16.2585 12.3301 16.1678 12.5491 16.0063 12.7106C15.8449 12.872 15.6259 12.9627 15.3975 12.9627ZM8.6025 12.9627C8.37415 12.9627 8.15515 12.872 7.99368 12.7106C7.83221 12.5491 7.7415 12.3301 7.7415 12.1017C7.7415 11.8734 7.83221 11.6544 7.99368 11.4929C8.15515 11.3315 8.37415 11.2408 8.6025 11.2408C8.83085 11.2408 9.04985 11.3315 9.21132 11.4929C9.37279 11.6544 9.4635 11.8734 9.4635 12.1017C9.4635 12.3301 9.37279 12.5491 9.21132 12.7106C9.04985 12.872 8.83085 12.9627 8.6025 12.9627Z" fill="#F6F54D"/>
</g>
<path d="M35.704 24V7.272H39.784L44.464 19.776H43.96L48.664 7.272H52.72V24H49.936V10.512L50.176 10.56L45.568 22.536H42.856L38.224 10.56L38.488 10.512V24H35.704ZM63.6061 24L63.4141 22.008V16.536C63.4141 15.768 63.1821 15.192 62.7181 14.808C62.2541 14.408 61.6061 14.208 60.7741 14.208C60.1341 14.208 59.5021 14.336 58.8781 14.592C58.2701 14.832 57.7101 15.208 57.1981 15.72L55.7101 13.968C56.4781 13.248 57.2941 12.736 58.1581 12.432C59.0221 12.112 59.9661 11.952 60.9901 11.952C62.5901 11.952 63.8301 12.36 64.7101 13.176C65.6061 13.976 66.0541 15.096 66.0541 16.536V24H63.6061ZM59.9341 24.216C59.0541 24.216 58.2701 24.056 57.5821 23.736C56.9101 23.416 56.3821 22.968 55.9981 22.392C55.6301 21.816 55.4461 21.144 55.4461 20.376C55.4461 19.72 55.5821 19.152 55.8541 18.672C56.1421 18.192 56.5101 17.816 56.9581 17.544C57.3421 17.304 57.7901 17.136 58.3021 17.04C58.8141 16.928 59.3501 16.872 59.9101 16.872H63.6301V18.864H60.2941C60.0061 18.864 59.7181 18.896 59.4301 18.96C59.1421 19.008 58.8861 19.104 58.6621 19.248C58.5021 19.376 58.3661 19.536 58.2541 19.728C58.1581 19.92 58.1101 20.144 58.1101 20.4C58.1101 20.912 58.3021 21.32 58.6861 21.624C59.0861 21.912 59.6141 22.056 60.2701 22.056C60.8461 22.056 61.3661 21.928 61.8301 21.672C62.3101 21.416 62.6941 21.064 62.9821 20.616C63.2701 20.168 63.4141 19.664 63.4141 19.104L64.2301 20.424C64.0381 21.256 63.7341 21.96 63.3181 22.536C62.9021 23.096 62.4061 23.52 61.8301 23.808C61.2541 24.08 60.6221 24.216 59.9341 24.216ZM69.0288 24V12.168H71.7168V15.36L71.2128 15.432C71.2928 14.744 71.5248 14.144 71.9088 13.632C72.2928 13.104 72.7568 12.696 73.3008 12.408C73.8608 12.104 74.4128 11.952 74.9568 11.952C75.3408 11.952 75.7088 12 76.0608 12.096C76.4128 12.192 76.7808 12.352 77.1648 12.576L75.8688 14.976C75.6928 14.864 75.4608 14.776 75.1728 14.712C74.9008 14.632 74.6368 14.592 74.3808 14.592C74.0448 14.592 73.7088 14.656 73.3728 14.784C73.0528 14.912 72.7648 15.112 72.5088 15.384C72.2528 15.64 72.0608 15.976 71.9328 16.392C71.8528 16.616 71.7888 16.912 71.7408 17.28C71.7088 17.632 71.6928 18.128 71.6928 18.768V24H69.0288ZM87.1229 24L83.5469 18.36L81.5309 20.592V17.208L86.3549 12.168H89.7629L85.4909 16.584L90.2909 24H87.1229ZM79.1069 24V7.272H81.7709V24H79.1069ZM96.7831 24.216C95.7911 24.216 94.9271 24.056 94.1911 23.736C93.4711 23.416 92.8791 22.968 92.4151 22.392C91.9511 21.816 91.6071 21.168 91.3831 20.448C91.1591 19.712 91.0471 18.952 91.0471 18.168C91.0471 17.384 91.1511 16.624 91.3591 15.888C91.5831 15.136 91.9191 14.464 92.3671 13.872C92.8151 13.28 93.3911 12.816 94.0951 12.48C94.7991 12.128 95.6311 11.952 96.5911 11.952C97.5031 11.952 98.2951 12.112 98.9671 12.432C99.6551 12.736 100.223 13.168 100.671 13.728C101.119 14.272 101.447 14.896 101.655 15.6C101.879 16.304 101.991 17.056 101.991 17.856C101.991 17.968 101.983 18.128 101.967 18.336C101.967 18.544 101.951 18.752 101.919 18.96H93.7111C93.7751 19.904 94.0951 20.624 94.6711 21.12C95.2471 21.616 95.9831 21.864 96.8791 21.864C97.5351 21.864 98.1351 21.76 98.6791 21.552C99.2231 21.344 99.7191 21.016 100.167 20.568L101.631 22.344C101.135 22.792 100.639 23.152 100.143 23.424C99.6471 23.696 99.1271 23.896 98.5831 24.024C98.0551 24.152 97.4551 24.216 96.7831 24.216ZM99.3751 17.616C99.4071 17.488 99.4231 17.36 99.4231 17.232C99.4391 17.104 99.4471 16.976 99.4471 16.848C99.4471 16.496 99.3831 16.16 99.2551 15.84C99.1431 15.52 98.9671 15.24 98.7271 15C98.4871 14.744 98.1911 14.544 97.8391 14.4C97.4871 14.24 97.0871 14.16 96.6391 14.16C96.0151 14.16 95.4871 14.296 95.0551 14.568C94.6391 14.84 94.3111 15.192 94.0711 15.624C93.8471 16.04 93.7111 16.496 93.6631 16.992H100.239L99.3751 17.616ZM108.809 24.216C108.217 24.216 107.657 24.104 107.129 23.88C106.617 23.64 106.209 23.264 105.905 22.752C105.601 22.224 105.449 21.536 105.449 20.688V9.288L108.137 7.8V19.944C108.137 20.616 108.233 21.136 108.425 21.504C108.633 21.856 109.001 22.032 109.529 22.032C109.689 22.032 109.873 22.016 110.081 21.984C110.305 21.936 110.537 21.88 110.777 21.816V23.88C110.457 23.992 110.129 24.072 109.793 24.12C109.473 24.184 109.145 24.216 108.809 24.216ZM103.193 14.232V12.168H110.777V14.232H103.193Z" fill="#F55353"/>
<path d="M119.54 24V7.272H123.62L128.3 19.776H127.796L132.5 7.272H136.556V24H133.772V10.512L134.012 10.56L129.404 22.536H126.692L122.06 10.56L122.324 10.512V24H119.54ZM145.138 24.216C144.018 24.216 143.01 23.952 142.114 23.424C141.218 22.896 140.514 22.168 140.002 21.24C139.506 20.312 139.258 19.256 139.258 18.072C139.258 16.888 139.506 15.832 140.002 14.904C140.514 13.976 141.21 13.256 142.09 12.744C142.986 12.216 144.002 11.952 145.138 11.952C146.29 11.952 147.298 12.216 148.162 12.744C149.042 13.256 149.738 13.976 150.25 14.904C150.762 15.832 151.018 16.888 151.018 18.072C151.018 19.256 150.762 20.312 150.25 21.24C149.754 22.168 149.058 22.896 148.162 23.424C147.282 23.952 146.274 24.216 145.138 24.216ZM145.162 21.864C145.818 21.864 146.386 21.712 146.866 21.408C147.346 21.104 147.714 20.664 147.97 20.088C148.226 19.512 148.354 18.84 148.354 18.072C148.354 17.288 148.226 16.616 147.97 16.056C147.714 15.48 147.346 15.04 146.866 14.736C146.386 14.432 145.818 14.28 145.162 14.28C144.474 14.28 143.89 14.44 143.41 14.76C142.93 15.064 142.562 15.496 142.306 16.056C142.05 16.616 141.922 17.288 141.922 18.072C141.922 18.84 142.05 19.512 142.306 20.088C142.562 20.664 142.93 21.104 143.41 21.408C143.89 21.712 144.474 21.864 145.162 21.864ZM153.471 29.112C153.167 29.112 152.831 29.08 152.463 29.016C152.111 28.952 151.767 28.872 151.431 28.776V26.472C151.655 26.52 151.855 26.56 152.031 26.592C152.223 26.624 152.375 26.64 152.487 26.64C152.839 26.64 153.103 26.552 153.279 26.376C153.471 26.216 153.567 25.888 153.567 25.392V12.168H156.231V26.112C156.231 27.152 155.975 27.912 155.463 28.392C154.951 28.872 154.287 29.112 153.471 29.112ZM153.447 10.224V7.272H156.351V10.224H153.447ZM164.661 24.216C163.541 24.216 162.533 23.952 161.637 23.424C160.741 22.896 160.037 22.168 159.525 21.24C159.029 20.312 158.781 19.256 158.781 18.072C158.781 16.888 159.029 15.832 159.525 14.904C160.037 13.976 160.733 13.256 161.613 12.744C162.509 12.216 163.525 11.952 164.661 11.952C165.813 11.952 166.821 12.216 167.685 12.744C168.565 13.256 169.261 13.976 169.773 14.904C170.285 15.832 170.541 16.888 170.541 18.072C170.541 19.256 170.285 20.312 169.773 21.24C169.277 22.168 168.581 22.896 167.685 23.424C166.805 23.952 165.797 24.216 164.661 24.216ZM164.685 21.864C165.341 21.864 165.909 21.712 166.389 21.408C166.869 21.104 167.237 20.664 167.493 20.088C167.749 19.512 167.877 18.84 167.877 18.072C167.877 17.288 167.749 16.616 167.493 16.056C167.237 15.48 166.869 15.04 166.389 14.736C165.909 14.432 165.341 14.28 164.685 14.28C163.997 14.28 163.413 14.44 162.933 14.76C162.453 15.064 162.085 15.496 161.829 16.056C161.573 16.616 161.445 17.288 161.445 18.072C161.445 18.84 161.573 19.512 161.829 20.088C162.085 20.664 162.453 21.104 162.933 21.408C163.413 21.712 163.997 21.864 164.685 21.864Z" fill="#F6F54D"/>
<defs>
<clipPath id="clip0_21_96">
<rect width="24" height="24" fill="white" transform="translate(0 3.5)"/>
</clipPath>
</defs>
</svg>
