<svg width="25" height="25" viewBox="0 0 25 25" fill="none" xmlns="http://www.w3.org/2000/svg">
<path d="M12.5 3.50293C12.1064 3.50293 11.7167 3.58045 11.3531 3.73106C10.9895 3.88168 10.6591 4.10243 10.3808 4.38073C10.1025 4.65903 9.88175 4.98941 9.73113 5.35303C9.58052 5.71664 9.503 6.10636 9.503 6.49993C9.503 6.8935 9.58052 7.28322 9.73113 7.64683C9.88175 8.01045 10.1025 8.34083 10.3808 8.61913C10.6591 8.89743 10.9895 9.11818 11.3531 9.2688C11.7167 9.41941 12.1064 9.49693 12.5 9.49693C13.2949 9.49693 14.0572 9.18118 14.6192 8.61913C15.1812 8.05708 15.497 7.29478 15.497 6.49993C15.497 5.70508 15.1812 4.94278 14.6192 4.38073C14.0572 3.81868 13.2949 3.50293 12.5 3.50293ZM19.25 4.99993C18.6533 4.99993 18.081 5.23698 17.659 5.65894C17.2371 6.0809 17 6.65319 17 7.24993C17 7.84667 17.2371 8.41896 17.659 8.84092C18.081 9.26288 18.6533 9.49993 19.25 9.49993C19.8467 9.49993 20.419 9.26288 20.841 8.84092C21.2629 8.41896 21.5 7.84667 21.5 7.24993C21.5 6.65319 21.2629 6.0809 20.841 5.65894C20.419 5.23698 19.8467 4.99993 19.25 4.99993ZM5.75 4.99993C5.15326 4.99993 4.58097 5.23698 4.15901 5.65894C3.73705 6.0809 3.5 6.65319 3.5 7.24993C3.5 7.84667 3.73705 8.41896 4.15901 8.84092C4.58097 9.26288 5.15326 9.49993 5.75 9.49993C6.34674 9.49993 6.91903 9.26288 7.34099 8.84092C7.76295 8.41896 8 7.84667 8 7.24993C8 6.65319 7.76295 6.0809 7.34099 5.65894C6.91903 5.23698 6.34674 4.99993 5.75 4.99993ZM8 12.4894C8.00277 12.0934 8.16203 11.7146 8.44304 11.4356C8.72404 11.1565 9.10399 10.9999 9.5 10.9999H15.5C15.8978 10.9999 16.2794 11.158 16.5607 11.4393C16.842 11.7206 17 12.1021 17 12.4999V16.9999C16.9999 17.472 16.926 17.9412 16.781 18.3904C16.4489 19.4085 15.7647 20.2748 14.8513 20.8338C13.9379 21.3928 12.8551 21.6078 11.7974 21.4403C10.7398 21.2729 9.77642 20.7338 9.08042 19.9199C8.38442 19.1061 8.00135 18.0708 8 16.9999V12.4894ZM6.5 12.4999C6.5 11.9524 6.6455 11.4409 6.902 10.9999H3.5C3.10218 10.9999 2.72064 11.158 2.43934 11.4393C2.15804 11.7206 2 12.1021 2 12.4999V16.2499C1.9998 16.8639 2.15034 17.4685 2.43841 18.0107C2.72648 18.5529 3.14326 19.016 3.65216 19.3595C4.16106 19.7029 4.74651 19.9162 5.35708 19.9805C5.96766 20.0449 6.5847 19.9583 7.154 19.7284C6.72227 18.8833 6.49808 17.9475 6.5 16.9984V12.4999ZM18.5 12.4999V16.9999C18.5 17.9824 18.2645 18.9094 17.846 19.7284C18.4153 19.9583 19.0323 20.0449 19.6429 19.9805C20.2535 19.9162 20.8389 19.7029 21.3478 19.3595C21.8567 19.016 22.2735 18.5529 22.5616 18.0107C22.8497 17.4685 23.0002 16.8639 23 16.2499V12.4999C23 12.1021 22.842 11.7206 22.5607 11.4393C22.2794 11.158 21.8978 10.9999 21.5 10.9999H18.098C18.353 11.4409 18.5 11.9524 18.5 12.4999Z" fill="#F6F54D"/>
</svg>
