<svg width="24" height="25" viewBox="0 0 24 25" fill="none" xmlns="http://www.w3.org/2000/svg">
<path d="M10.5 17.75H16.5V19.25H10.5V17.75ZM7.5 17.75H9V19.25H7.5V17.75ZM10.5 14H16.5V15.5H10.5V14ZM7.5 14H9V15.5H7.5V14ZM10.5 10.25H16.5V11.75H10.5V10.25ZM7.5 10.25H9V11.75H7.5V10.25Z" fill="#F6F54D"/>
<path d="M18.75 4.25H16.5V3.5C16.5 3.10218 16.342 2.72064 16.0607 2.43934C15.7794 2.15804 15.3978 2 15 2H9C8.60218 2 8.22064 2.15804 7.93934 2.43934C7.65804 2.72064 7.5 3.10218 7.5 3.5V4.25H5.25C4.85218 4.25 4.47064 4.40804 4.18934 4.68934C3.90804 4.97064 3.75 5.35218 3.75 5.75V21.5C3.75 21.8978 3.90804 22.2794 4.18934 22.5607C4.47064 22.842 4.85218 23 5.25 23H18.75C19.1478 23 19.5294 22.842 19.8107 22.5607C20.092 22.2794 20.25 21.8978 20.25 21.5V5.75C20.25 5.35218 20.092 4.97064 19.8107 4.68934C19.5294 4.40804 19.1478 4.25 18.75 4.25ZM9 3.5H15V6.5H9V3.5ZM18.75 21.5H5.25V5.75H7.5V8H16.5V5.75H18.75V21.5Z" fill="#F6F54D"/>
</svg>
