<svg width="46" height="22" viewBox="0 0 46 22" fill="none" xmlns="http://www.w3.org/2000/svg">
<path d="M23.7089 3.15713L20.6425 20.0689L16.6876 20.2695L12.403 8.55576L10.2639 20.5953L6.33524 20.8185L0.219127 4.34849L3.81451 4.16614L8.01103 16.9646L10.1663 3.84399L13.9055 3.65434L18.3588 16.3677L20.0896 3.3407L23.7089 3.15713ZM27.7815 4.82305C27.1903 4.85303 26.6773 4.69501 26.2425 4.34896C25.8221 3.98619 25.585 3.52609 25.5313 2.96868C25.4776 2.41126 25.6248 1.93968 25.973 1.55392C26.3356 1.15143 26.8126 0.935197 27.4038 0.90521C27.995 0.875223 28.5008 1.04162 28.9212 1.40439C29.356 1.75044 29.6003 2.20216 29.654 2.75958C29.7077 3.31699 29.5533 3.79695 29.1907 4.19944C28.8425 4.58519 28.3728 4.79306 27.7815 4.82305ZM29.5874 6.31585L30.8633 19.5505L27.5077 19.7207L26.2317 6.48605L29.5874 6.31585ZM41.5133 19.0103L38.3847 15.04L36.36 19.2717L32.7646 19.4541L36.4627 12.5928L31.4407 6.22186L35.2278 6.02978L38.3302 9.97747L40.3812 5.76841L43.9766 5.58605L40.2499 12.4007L45.3005 18.8183L41.5133 19.0103Z" fill="#F6F54D"/>
</svg>
