<svg width="108" height="24" viewBox="0 0 108 24" fill="none" xmlns="http://www.w3.org/2000/svg">
<path d="M15.0137 5.72357L10.4034 16.8806L10.9622 22.6858L7.60653 22.8563L7.04769 17.0511L0.320615 6.46988L4.10773 6.27752L8.43672 13.7157L11.2745 5.91349L15.0137 5.72357ZM24.4713 22.2157C23.193 22.2806 22.0156 22.0603 20.9393 21.5549C19.8614 21.0335 18.977 20.2702 18.2861 19.265C17.6112 18.259 17.2086 17.0791 17.0783 15.7254C16.948 14.3716 17.1286 13.1621 17.6202 12.0969C18.1277 11.0308 18.874 10.1927 19.859 9.58254C20.8425 8.95644 21.9734 8.61092 23.2517 8.54598C24.5301 8.48105 25.7162 8.70888 26.81 9.22947C27.9024 9.73414 28.794 10.4891 29.4849 11.4942C30.1917 12.4986 30.6103 13.6777 30.7407 15.0314C30.871 16.3852 30.6744 17.5955 30.1508 18.6623C29.6433 19.7284 28.8898 20.5749 27.8903 21.2018C26.9053 21.812 25.7657 22.1499 24.4713 22.2157ZM24.1908 19.3012C24.798 19.2703 25.3514 19.0982 25.8512 18.7847C26.3653 18.4545 26.7539 17.9867 27.0167 17.3811C27.2796 16.7756 27.3704 16.0508 27.2891 15.2067C27.168 13.9485 26.7397 13.002 26.0041 12.3672C25.2831 11.7157 24.4431 11.4142 23.4844 11.4629C22.5256 11.5116 21.7516 11.895 21.1624 12.6132C20.5876 13.3145 20.3608 14.2943 20.4819 15.5525C20.603 16.8107 21.0081 17.7664 21.6973 18.4195C22.4008 19.056 23.232 19.3499 24.1908 19.3012ZM45.101 7.65223L46.3751 20.8871L42.9954 21.0587L42.8344 19.3864C42.4582 19.9817 41.9346 20.4644 41.2637 20.8346C40.6073 21.188 39.8716 21.3854 39.0566 21.4268C38.0179 21.4796 37.0784 21.3112 36.2381 20.9218C35.3962 20.5165 34.7029 19.9035 34.1582 19.0829C33.628 18.2456 33.3062 17.2377 33.1927 16.0592L32.4453 8.29506L35.801 8.12462L36.5024 15.4109C36.6036 16.4621 36.9454 17.2609 37.528 17.8075C38.1089 18.3381 38.8548 18.5803 39.7657 18.5341C40.6925 18.487 41.3927 18.1713 41.8664 17.5871C42.3385 16.987 42.524 16.1614 42.4228 15.1102L41.7213 7.8239L45.101 7.65223ZM59.4661 3.46566L59.7259 6.16518L55.2677 6.39163L56.613 20.367L53.2574 20.5375L51.912 6.56208L47.4538 6.78853L47.1939 4.08901L59.4661 3.46566ZM74.7815 6.14465L76.0555 19.3795L72.6759 19.5511L72.5149 17.8789C72.1387 18.4741 71.6151 18.9568 70.9442 19.327C70.2877 19.6804 69.552 19.8778 68.7371 19.9192C67.6984 19.972 66.7589 19.8037 65.9186 19.4142C65.0767 19.0089 64.3834 18.3959 63.8387 17.5754C63.3085 16.7381 62.9867 15.7301 62.8732 14.5516L62.1258 6.78748L65.4815 6.61703L66.1829 13.9033C66.2841 14.9545 66.6259 15.7533 67.2084 16.2999C67.7894 16.8305 68.5353 17.0727 69.4462 17.0265C70.373 16.9794 71.0732 16.6637 71.5469 16.0795C72.019 15.4794 72.2044 14.6538 72.1033 13.6026L71.4018 6.31631L74.7815 6.14465ZM81.6343 7.74108C82.0045 7.08211 82.5459 6.53447 83.2586 6.09816C83.9873 5.66105 84.839 5.41773 85.8137 5.36822C86.9482 5.31059 87.9978 5.53736 88.9622 6.04852C89.9427 6.55886 90.7464 7.31825 91.3734 8.32668C92.0148 9.31837 92.4007 10.4911 92.531 11.8448C92.6613 13.1986 92.5055 14.4148 92.0633 15.4936C91.6357 16.5555 90.986 17.3968 90.1144 18.0172C89.2588 18.6368 88.2637 18.9754 87.1292 19.033C86.1385 19.0834 85.2492 18.9365 84.4614 18.5924C83.688 18.2316 83.0477 17.752 82.5405 17.1536L82.7221 19.0408L79.3665 19.2113L77.6646 1.53301L81.0203 1.36257L81.6343 7.74108ZM89.1034 12.0189C89.0268 11.2226 88.7931 10.5463 88.4023 9.99C88.026 9.41695 87.5516 8.99293 86.9792 8.71793C86.4227 8.44211 85.8329 8.32003 85.2097 8.35168C84.6025 8.38253 84.0426 8.57101 83.5299 8.91713C83.0318 9.24652 82.6432 9.71437 82.3644 10.3207C82.1015 10.9262 82.0084 11.6271 82.0851 12.4234C82.1618 13.2198 82.3882 13.9044 82.7646 14.4775C83.1569 15.0497 83.632 15.4817 84.19 15.7734C84.7624 16.0484 85.3522 16.1705 85.9595 16.1397C86.5826 16.108 87.1426 15.9195 87.6392 15.5742C88.1519 15.2281 88.5396 14.7523 88.8025 14.1468C89.0813 13.5405 89.1816 12.8312 89.1034 12.0189ZM107.291 10.8551C107.337 11.3329 107.346 11.7645 107.319 12.15L97.6114 12.6431C97.7833 13.5946 98.1909 14.3261 98.8343 14.8375C99.4777 15.349 100.231 15.5828 101.094 15.539C102.34 15.4757 103.176 14.8971 103.6 13.8033L107.22 13.6194C106.959 14.913 106.325 16.0015 105.318 16.8848C104.31 17.7523 103.014 18.2262 101.432 18.3065C100.154 18.3715 98.9767 18.1512 97.9003 17.6457C96.8384 17.1235 95.97 16.3594 95.2951 15.3534C94.6362 14.3466 94.2415 13.1663 94.1112 11.8126C93.9794 10.4429 94.1433 9.22627 94.6029 8.16264C95.0625 7.09902 95.7688 6.26293 96.7219 5.65438C97.6749 5.04582 98.8066 4.70826 100.117 4.64171C101.379 4.57758 102.532 4.79111 103.575 5.28229C104.634 5.77265 105.483 6.50571 106.123 7.48148C106.777 8.4405 107.166 9.56504 107.291 10.8551ZM103.723 10.076C103.624 9.21681 103.247 8.54781 102.591 8.069C101.933 7.57428 101.164 7.34923 100.285 7.39388C99.4546 7.43608 98.776 7.72662 98.2498 8.26548C97.7381 8.78761 97.4612 9.49785 97.4192 10.3962L103.723 10.076Z" fill="#F6F54D"/>
</svg>
