<svg width="65" height="69" viewBox="0 0 65 69" fill="none" xmlns="http://www.w3.org/2000/svg">
<g clip-path="url(#clip0_17_60)">
<path fill-rule="evenodd" clip-rule="evenodd" d="M32.5 69C14.5498 69 0 53.5548 0 34.5C0 15.4452 14.5498 0 32.5 0C50.4502 0 65 15.4452 65 34.5C65 53.5548 50.4502 69 32.5 69ZM23.2984 16.519C21.2467 16.519 19.279 17.3842 17.8282 18.9243C16.3775 20.4644 15.5624 22.5531 15.5624 24.7311C15.5624 26.9091 16.3775 28.9979 17.8282 30.5379C19.279 32.078 21.2467 32.9432 23.2984 32.9432C25.3502 32.9432 27.3178 32.078 28.7686 30.5379C30.2194 28.9979 31.0345 26.9091 31.0345 24.7311C31.0345 22.5531 30.2194 20.4644 28.7686 18.9243C27.3178 17.3842 25.3502 16.519 23.2984 16.519ZM31.0314 44.27C31.0314 41.2659 32.1556 38.3849 34.1566 36.2607C36.1577 34.1365 38.8717 32.9432 41.7016 32.9432C43.2314 32.9432 44.7269 32.4616 45.9989 31.5594C47.2709 30.6571 48.2623 29.3748 48.8478 27.8744C49.4332 26.374 49.5864 24.7231 49.2879 23.1303C48.9895 21.5375 48.2528 20.0745 47.171 18.9261C46.0893 17.7778 44.711 16.9958 43.2106 16.679C41.7101 16.3621 40.1549 16.5247 38.7415 17.1462C37.3281 17.7677 36.1201 18.8201 35.2701 20.1704C34.4202 21.5207 33.9666 23.1082 33.9666 24.7322C33.9666 30.9853 29.1891 36.059 23.2964 36.059C21.7666 36.059 20.2711 36.5405 18.9991 37.4428C17.7271 38.345 16.7356 39.6274 16.1502 41.1278C15.5648 42.6281 15.4116 44.2791 15.71 45.8719C16.0085 47.4646 16.7452 48.9277 17.8269 50.076C18.9087 51.2244 20.2869 52.0064 21.7874 52.3232C23.2878 52.64 24.8431 52.4774 26.2565 51.8559C27.6698 51.2345 28.8779 50.182 29.7278 48.8318C30.5778 47.4815 31.0314 45.894 31.0314 44.27ZM41.7016 52.481C42.7173 52.4811 43.7232 52.2689 44.6617 51.8564C45.6002 51.4438 46.453 50.8391 47.1713 50.0768C47.8897 49.3144 48.4596 48.4093 48.8484 47.4132C49.2372 46.417 49.4374 45.3493 49.4376 44.271C49.4377 43.1928 49.2378 42.125 48.8492 41.1288C48.4606 40.1325 47.8909 39.2272 47.1728 38.4647C46.4546 37.7021 45.602 37.0972 44.6636 36.6844C43.7252 36.2716 42.7194 36.0591 41.7036 36.059C39.6521 36.059 37.6847 36.9241 36.2341 38.4639C34.7835 40.0038 33.9686 42.0923 33.9686 44.27C33.9686 46.4477 34.7835 48.5362 36.2341 50.076C37.6847 51.6159 39.6501 52.481 41.7016 52.481ZM41.7016 46.7453C41.0831 46.7453 40.49 46.4845 40.0527 46.0203C39.6154 45.5561 39.3697 44.9265 39.3697 44.27C39.3697 43.6135 39.6154 42.9838 40.0527 42.5196C40.49 42.0554 41.0831 41.7946 41.7016 41.7946C42.32 41.7946 42.9131 42.0554 43.3504 42.5196C43.7878 42.9838 44.0334 43.6135 44.0334 44.27C44.0334 44.9265 43.7878 45.5561 43.3504 46.0203C42.9131 46.4845 42.32 46.7453 41.7016 46.7453ZM23.2984 46.7453C22.68 46.7453 22.0869 46.4845 21.6496 46.0203C21.2122 45.5561 20.9666 44.9265 20.9666 44.27C20.9666 43.6135 21.2122 42.9838 21.6496 42.5196C22.0869 42.0554 22.68 41.7946 23.2984 41.7946C23.9169 41.7946 24.51 42.0554 24.9473 42.5196C25.3846 42.9838 25.6303 43.6135 25.6303 44.27C25.6303 44.9265 25.3846 45.5561 24.9473 46.0203C24.51 46.4845 23.9169 46.7453 23.2984 46.7453ZM41.7016 27.2054C41.0831 27.2054 40.49 26.9446 40.0527 26.4804C39.6154 26.0162 39.3697 25.3865 39.3697 24.73C39.3697 24.0735 39.6154 23.4439 40.0527 22.9797C40.49 22.5155 41.0831 22.2547 41.7016 22.2547C42.32 22.2547 42.9131 22.5155 43.3504 22.9797C43.7878 23.4439 44.0334 24.0735 44.0334 24.73C44.0334 25.3865 43.7878 26.0162 43.3504 26.4804C42.9131 26.9446 42.32 27.2054 41.7016 27.2054ZM23.2984 27.2054C22.68 27.2054 22.0869 26.9446 21.6496 26.4804C21.2122 26.0162 20.9666 25.3865 20.9666 24.73C20.9666 24.0735 21.2122 23.4439 21.6496 22.9797C22.0869 22.5155 22.68 22.2547 23.2984 22.2547C23.9169 22.2547 24.51 22.5155 24.9473 22.9797C25.3846 23.4439 25.6303 24.0735 25.6303 24.73C25.6303 25.3865 25.3846 26.0162 24.9473 26.4804C24.51 26.9446 23.9169 27.2054 23.2984 27.2054Z" fill="#F6F54D"/>
</g>
<defs>
<clipPath id="clip0_17_60">
<rect width="65" height="69" fill="white"/>
</clipPath>
</defs>
</svg>
